<?xml version="1.0" encoding="utf-8"?>
<svg
    width="51"
    height="51"
    viewBox="0 0 51 51"
    xmlns="http://www.w3.org/2000/svg"
    xmlns:xlink="http://www.w3.org/1999/xlink"
    xml:space="preserve"
>
  <style type="text/css">
    .st0 { fill: #055722; }
    .st1 { fill: #055722; }
  </style>
  <path class="st0" d="M10,26.6c0-5.6,3.1-10.7,8-13.4c-1.1-0.6-2.2-1.3-3.1-2.1C9.9,14.5,6.9,20,6.7,26c1.2,0.4,2.4,1,3.4,1.8 C10.1,27.4,10.1,27,10,26.6"/>
  <path class="st0" d="M33.5,39.4c-5,3.3-11.5,3.3-16.5,0c0,0.3,0.1,0.8,0.1,1.5c0,0.8-0.1,1.6-0.2,2.3c5.3,2.7,11.5,2.7,16.8,0 c-0.1-0.8-0.2-1.5-0.2-2.3C33.5,40.4,33.5,39.9,33.5,39.4"/>
  <path class="st0" d="M40.5,26.6c0,0.4,0,0.7,0,1.1l0,0c1.1-0.7,2.2-1.3,3.4-1.8c-0.2-6-3.3-11.5-8.2-14.8c-0.9,0.8-2,1.5-3.1,2.1 C37.4,15.9,40.5,21.1,40.5,26.6"/>
  <path class="st1" d="M19.1,12.4c3,1.5,2.6,3.5,2.6,3.5l0.2,5.5c0.4,2,1.6,3.8,3.3,4.9l0,0l0,0c1.7-1.2,2.9-2.9,3.3-4.9l0.2-5.5 c0,0-0.4-2,2.6-3.5c0,0,5.6-2.4,5.9-6.6c0,0-0.3,2.7-6.5,3.5c-1.2,0.3-2.3,0.9-3.3,1.5c-1.4,0.8-3.2,0.8-4.6,0 c-1-0.7-2.2-1.2-3.3-1.5c-6.2-0.8-6.5-3.5-6.5-3.5C13.5,10,19.1,12.4,19.1,12.4"/>
  <path class="st1" d="M25.3,10.4c1.7,0,3.1-1.4,3.1-3.1S27,4.1,25.3,4.1c-1.7,0-3.1,1.4-3.1,3.1C22.2,9,23.6,10.4,25.3,10.4"/>
  <path class="st1" d="M15.8,39.3c-0.2-3.3,1.7-4,1.7-4l4.6-3c1.5-1.4,2.4-3.3,2.6-5.4l0,0l0,0c-1.9-0.9-4-1-5.9-0.3l-4.9,2.6 c0,0-1.5,1.3-4.3-0.5c0,0-4.9-3.6-8.7-1.7c0,0,2.5-1.1,6.4,3.8c0.9,0.8,1.9,1.6,3,2.1c0.7,0.4,1.3,0.9,1.7,1.6 c0.4,0.7,0.6,1.5,0.6,2.3c-0.1,1.2,0.1,2.5,0.4,3.7c2.4,5.7,0.3,7.4,0.3,7.4C16.6,45.4,15.8,39.4,15.8,39.3"/>
  <path class="st1" d="M10.9,35.1c-0.9-1.5-2.8-2-4.3-1.1c-1.5,0.9-2,2.8-1.1,4.3c0.9,1.5,2.8,2,4.3,1.1 C11.3,38.5,11.8,36.5,10.9,35.1"/>
  <path class="st1" d="M37.4,47.8c0,0-2.2-1.7,0.3-7.4c0.3-1.2,0.5-2.4,0.4-3.7c0-1.6,0.9-3.2,2.3-3.9c1.1-0.5,2.1-1.2,3-2.1 c3.9-4.9,6.4-3.8,6.4-3.8c-3.8-1.9-8.7,1.7-8.7,1.7c-2.8,1.8-4.3,0.5-4.3,0.5L32,26.6C30,25.9,27.9,26,26.8,26.8l0,0l0,0 c0.1,2.1,1,4,2.6,5.4l4.6,3c0,0,1.9,0.7,1.6,4C34.8,39.2,34,45.3,37.4,47.8"/>
  <path class="st1" d="M40.8,39.3c1.5,0.9,3.4,0.4,4.3-1.1c0.9-1.5,0.4-3.4-1.1-4.3c-1.5-0.9-3.4-0.4-4.3,1.1 C38.8,36.5,39.3,38.5,40.8,39.3"/>
</svg>
