<svg xmlns:xlink="http://www.w3.org/1999/xlink"  xmlns="http://www.w3.org/2000/svg" id="a6e38368-aa25-4837-a7fe-38ddc4df9b97" data-name="Layer 1" width="234" height="46" viewBox="0 0 234 46"><path d="M240.28,73.7a16,16,0,0,1,8.42-14.1,16.55,16.55,0,0,1-3.29-2.2A19.59,19.59,0,0,0,236.71,73a15.89,15.89,0,0,1,3.61,1.85c0-.37,0-.74,0-1.11" transform="translate(-50 -50)" style="fill:#009ade"/><path d="M265,87.12a16,16,0,0,1-17.42,0c0,.31.07.87.07,1.6a15.2,15.2,0,0,1-.19,2.47,19.55,19.55,0,0,0,17.65,0,14.78,14.78,0,0,1-.19-2.44,16,16,0,0,1,.08-1.63" transform="translate(-50 -50)" style="fill:#009ade"/><path d="M272.32,73.7c0,.39,0,.77-.05,1.15h0A15.65,15.65,0,0,1,275.89,73a19.62,19.62,0,0,0-8.68-15.55,15.57,15.57,0,0,1-3.29,2.19,16,16,0,0,1,8.4,14.09" transform="translate(-50 -50)" style="fill:#009ade"/><path d="M249.85,58.72c3.14,1.57,2.72,3.64,2.72,3.64l.25,5.79a8.49,8.49,0,0,0,3.48,5.21l0,0,0,0a8.5,8.5,0,0,0,3.47-5.21l.25-5.79s-.42-2.07,2.73-3.64c0,0,5.91-2.48,6.26-6.94,0,0-.34,2.83-6.83,3.71a12.42,12.42,0,0,0-3.51,1.63,4.63,4.63,0,0,1-4.8,0,12.53,12.53,0,0,0-3.52-1.63c-6.49-.88-6.83-3.71-6.83-3.71.36,4.46,6.27,6.94,6.27,6.94" transform="translate(-50 -50)" style="fill:#ffb71b"/><path d="M256.35,56.59a3.3,3.3,0,1,0-3.3-3.3,3.29,3.29,0,0,0,3.3,3.3" transform="translate(-50 -50)" style="fill:#ffb71b"/><path d="M246.3,87.07c-.25-3.51,1.74-4.21,1.74-4.21l4.85-3.17a8.5,8.5,0,0,0,2.7-5.65h0s0,0,0,0a8.49,8.49,0,0,0-6.25-.32l-5.11,2.74s-1.56,1.42-4.52-.48c0,0-5.15-3.81-9.17-1.84,0,0,2.61-1.15,6.69,4a12.5,12.5,0,0,0,3.19,2.2A5,5,0,0,1,242.2,82a5,5,0,0,1,.64,2.41,12.47,12.47,0,0,0,.4,3.85c2.56,6,.29,7.77.29,7.77,3.66-2.58,2.77-8.93,2.77-8.93" transform="translate(-50 -50)" style="fill:#ffb71b"/><path d="M241.14,82.57A3.29,3.29,0,1,0,240,87.09a3.29,3.29,0,0,0,1.14-4.52" transform="translate(-50 -50)" style="fill:#ffb71b"/><path d="M269.1,96s-2.27-1.75.3-7.77a12.25,12.25,0,0,0,.41-3.85,4.59,4.59,0,0,1,2.46-4.12,12.55,12.55,0,0,0,3.2-2.19c4.08-5.12,6.69-4,6.69-4-4-2-9.17,1.82-9.17,1.82-3,1.9-4.53.48-4.53.48l-5.1-2.75a8.46,8.46,0,0,0-6.25.31v0h0a8.48,8.48,0,0,0,2.69,5.66l4.85,3.17s2,.71,1.72,4.21c0,0-.9,6.35,2.76,8.94" transform="translate(-50 -50)" style="fill:#ffb71b"/><path d="M272.65,87.08a3.29,3.29,0,1,0-1.14-4.51,3.29,3.29,0,0,0,1.14,4.51" transform="translate(-50 -50)" style="fill:#ffb71b"/><g style="opacity:0.65"><path d="M279.7,60.12a4.3,4.3,0,1,1,4.3-4.3A4.3,4.3,0,0,1,279.7,60.12Zm0-8.24a3.95,3.95,0,1,0,3.95,3.94A3.95,3.95,0,0,0,279.7,51.88Z" transform="translate(-50 -50)" style="fill:#010101"/><path d="M282.34,58.29H281c-.29-.46-.56-.86-.79-1.19s-.5-.69-.78-1.05h-.5v1.57a.66.66,0,0,0,0,.21.29.29,0,0,0,.17.15l.22,0,.26,0v.24h-2.09v-.24l.24,0,.23,0a.29.29,0,0,0,.15-.14.46.46,0,0,0,0-.22V54.05a.78.78,0,0,0,0-.22.25.25,0,0,0-.16-.14l-.23-.06-.24,0v-.25h2.28a2.22,2.22,0,0,1,.59.07,1.69,1.69,0,0,1,.5.2,1.09,1.09,0,0,1,.34.37,1,1,0,0,1,.13.54,1.5,1.5,0,0,1-.08.5,1,1,0,0,1-.26.38,1.5,1.5,0,0,1-.38.26,2.29,2.29,0,0,1-.48.19l.6.81.6.81a1.8,1.8,0,0,0,.27.31,2.56,2.56,0,0,0,.25.16,1,1,0,0,0,.23.07l.22,0Zm-1.83-3.68a.94.94,0,0,0-.26-.71,1,1,0,0,0-.72-.26h-.59v2.11h.45a1.12,1.12,0,0,0,.8-.3,1.1,1.1,0,0,0,.32-.84" transform="translate(-50 -50)" style="fill:#010101"/></g><path d="M74.52,72.28A7.54,7.54,0,0,1,72,75.91a6.31,6.31,0,0,1-3.91,1.49H53.54a3.29,3.29,0,0,1-3-1.49,4.15,4.15,0,0,1-.28-3.63L53.43,62A7.16,7.16,0,0,1,56,58.38a6.15,6.15,0,0,1,3.9-1.52H79.27L77.6,62.3H60.47a4.21,4.21,0,0,0-1.33.21,5.15,5.15,0,0,0-1.2.59A4,4,0,0,0,57,64a3.77,3.77,0,0,0-.62,1.07l-1.23,4A2.25,2.25,0,0,0,55,70.08a1.94,1.94,0,0,0,.4.9,2.13,2.13,0,0,0,.83.62,3.09,3.09,0,0,0,1.22.23H67.61a3.88,3.88,0,0,0,1.21-.2,5.17,5.17,0,0,0,1.09-.51,4,4,0,0,0,.88-.76,3.55,3.55,0,0,0,.6-.94H58.6l1.49-4.8H76.88Z" transform="translate(-50 -50)" style="fill:#ffb71b"/><path d="M79.58,64.77h3.85L79.53,77.4H75.67ZM86,56.86l11.82,15,4.62-15h3.85L99.92,77.4H96.07L84.25,62.3h-3.9L82,56.86Z" transform="translate(-50 -50)" style="fill:#ffb71b"/><polygon points="79.4 6.86 83.25 6.86 76.91 27.39 73.06 27.39 75.44 19.64 58.91 19.64 56.52 27.39 52.66 27.39 59.01 6.86 62.86 6.86 60.42 14.77 76.96 14.77 79.4 6.86" style="fill:#ffb71b"/><polygon points="80.06 27.39 86.41 6.86 90.26 6.86 83.92 27.39 80.06 27.39" style="fill:#009ade"/><path d="M140.62,64.77h3.85l-3.9,12.63h-3.85ZM147,56.86l11.82,15,4.62-15h3.85L161,77.4h-3.85L145.29,62.3h-3.9l1.67-5.44Z" transform="translate(-50 -50)" style="fill:#009ade"/><path d="M188,65a2.27,2.27,0,0,0-2.49-2.68H168.38l1.67-5.44h19.39a3.18,3.18,0,0,1,2.95,1.56A4.15,4.15,0,0,1,192.7,62l-3.16,10.27A7.47,7.47,0,0,1,187,75.91a6.31,6.31,0,0,1-3.91,1.49H163.71l4-12.84h3.85l-2.26,7.27h13.35A4.38,4.38,0,0,0,185.1,71a3.91,3.91,0,0,0,1.64-2Z" transform="translate(-50 -50)" style="fill:#009ade"/><polygon points="140.7 27.39 147.04 6.86 150.89 6.86 144.55 27.39 140.7 27.39" style="fill:#009ade"/><polygon points="164.37 12.3 159.42 12.3 163.86 6.86 167.76 6.86 171.59 27.39 167.64 27.39 165.81 19.49 158.06 19.49 151.28 27.39 147.35 27.39 157.49 14.84 164.94 14.84 164.37 12.3" style="fill:#009ade"/><g style="opacity:0.65"><path d="M52.21,95.66a2.34,2.34,0,0,1-1-.93,2.63,2.63,0,0,1-.36-1.38V90a2.63,2.63,0,0,1,.36-1.38,2.34,2.34,0,0,1,1-.93,3.49,3.49,0,0,1,2.94,0,2.36,2.36,0,0,1,1,.91,2.4,2.4,0,0,1,.35,1.31v.16a.11.11,0,0,1-.12.12h-.61a.11.11,0,0,1-.12-.12V90a1.76,1.76,0,0,0-.53-1.31,2,2,0,0,0-1.43-.5,1.94,1.94,0,0,0-1.42.52A1.77,1.77,0,0,0,51.72,90v3.36a1.78,1.78,0,0,0,.55,1.36,2.05,2.05,0,0,0,1.45.51,2,2,0,0,0,1.4-.48,1.64,1.64,0,0,0,.52-1.28V92.39a0,0,0,0,0,0,0H53.83a.11.11,0,0,1-.12-.12v-.5a.11.11,0,0,1,.12-.12h2.54a.11.11,0,0,1,.12.12v1.54a2.62,2.62,0,0,1-.76,2,2.86,2.86,0,0,1-2,.72A3.12,3.12,0,0,1,52.21,95.66Z" transform="translate(-50 -50)" style="fill:#010101"/><path d="M59.16,95.77V87.61a.11.11,0,0,1,.12-.12h.61a.11.11,0,0,1,.12.12v8.16a.11.11,0,0,1-.12.12h-.61A.11.11,0,0,1,59.16,95.77Z" transform="translate(-50 -50)" style="fill:#010101"/><path d="M63.58,95.54a2.27,2.27,0,0,1-.86-1.22,5.32,5.32,0,0,1-.17-1.48,5.16,5.16,0,0,1,.17-1.46,2.21,2.21,0,0,1,.85-1.21,2.52,2.52,0,0,1,1.51-.45,2.42,2.42,0,0,1,1.47.45,2.14,2.14,0,0,1,.85,1.2,6.48,6.48,0,0,1,0,2.95,2.15,2.15,0,0,1-.85,1.22,2.43,2.43,0,0,1-1.48.45A2.5,2.5,0,0,1,63.58,95.54Zm2.48-.61a1.63,1.63,0,0,0,.55-.86,5.35,5.35,0,0,0,.11-1.21,6.1,6.1,0,0,0-.1-1.22,1.55,1.55,0,0,0-1.56-1.17,1.53,1.53,0,0,0-1.55,1.17,8.25,8.25,0,0,0,0,2.43,1.52,1.52,0,0,0,.55.86,1.6,1.6,0,0,0,1,.31A1.58,1.58,0,0,0,66.06,94.93Z" transform="translate(-50 -50)" style="fill:#010101"/><path d="M75,92.86a5.44,5.44,0,0,1-.17,1.52A2.15,2.15,0,0,1,72.58,96a2.06,2.06,0,0,1-.87-.19,1.71,1.71,0,0,1-.66-.56s0,0,0,0,0,0,0,0v.51a.11.11,0,0,1-.12.12h-.61a.11.11,0,0,1-.12-.12V87.61a.11.11,0,0,1,.12-.12h.61a.11.11,0,0,1,.12.12v2.83s0,0,0,0,0,0,0,0a1.58,1.58,0,0,1,.66-.54,1.92,1.92,0,0,1,.87-.2,2.3,2.3,0,0,1,1.43.44,2.17,2.17,0,0,1,.79,1.21A5.78,5.78,0,0,1,75,92.86Zm-.9.88a6.52,6.52,0,0,0,0-.88,5.2,5.2,0,0,0-.07-.92,2.24,2.24,0,0,0-.21-.6,1.31,1.31,0,0,0-.51-.63,1.39,1.39,0,0,0-.82-.24,1.3,1.3,0,0,0-.79.24,1.37,1.37,0,0,0-.47.66,2.38,2.38,0,0,0-.18.57,7,7,0,0,0,0,.92,6.58,6.58,0,0,0,0,.89,2.38,2.38,0,0,0,.17.57,1.49,1.49,0,0,0,.47.67,1.28,1.28,0,0,0,.81.25,1.46,1.46,0,0,0,.87-.25,1.34,1.34,0,0,0,.51-.68A2,2,0,0,0,74.05,93.74Z" transform="translate(-50 -50)" style="fill:#010101"/><path d="M81.29,90.28a1.86,1.86,0,0,1,.59,1.46v4a.11.11,0,0,1-.12.12h-.61a.11.11,0,0,1-.12-.12v-.49a.05.05,0,0,0,0,0s0,0,0,0a1.83,1.83,0,0,1-.78.54,2.8,2.8,0,0,1-1.07.19,2.4,2.4,0,0,1-1.43-.43,1.56,1.56,0,0,1-.57-1.32,1.75,1.75,0,0,1,.65-1.43,2.9,2.9,0,0,1,1.82-.52H81s0,0,0-.05v-.45a1.34,1.34,0,0,0-.34-1,1.44,1.44,0,0,0-1.06-.35,1.74,1.74,0,0,0-.94.22.9.9,0,0,0-.44.62.14.14,0,0,1-.15.11l-.65-.09c-.08,0-.12,0-.1-.09a1.53,1.53,0,0,1,.72-1.1,2.71,2.71,0,0,1,1.56-.42A2.31,2.31,0,0,1,81.29,90.28Zm-.77,4.62A1.09,1.09,0,0,0,81,94V93S81,93,81,93H79.72a2.19,2.19,0,0,0-1.27.33,1,1,0,0,0-.48.9.92.92,0,0,0,.37.8,1.55,1.55,0,0,0,1,.27A2.12,2.12,0,0,0,80.52,94.9Z" transform="translate(-50 -50)" style="fill:#010101"/><path d="M84.5,95.77V87.61a.11.11,0,0,1,.12-.12h.61a.11.11,0,0,1,.12.12v8.16a.11.11,0,0,1-.12.12h-.61A.11.11,0,0,1,84.5,95.77Z" transform="translate(-50 -50)" style="fill:#010101"/><path d="M91.51,95.77V87.61a.11.11,0,0,1,.12-.12h.61a.11.11,0,0,1,.12.12V95.1a0,0,0,0,0,0,.05h4.23a.11.11,0,0,1,.12.12v.5a.11.11,0,0,1-.12.12h-5A.11.11,0,0,1,91.51,95.77Z" transform="translate(-50 -50)" style="fill:#010101"/><path d="M103.7,92.68v.38a.11.11,0,0,1-.12.12H99.7a0,0,0,0,0,0,0,4.61,4.61,0,0,0,.08.85,1.39,1.39,0,0,0,.56.85,1.84,1.84,0,0,0,1.11.31,1.69,1.69,0,0,0,.88-.22,1.57,1.57,0,0,0,.6-.65c.05-.07.11-.09.17-.05l.47.28a.12.12,0,0,1,0,.16,2.13,2.13,0,0,1-.9.91,2.82,2.82,0,0,1-1.38.33,2.49,2.49,0,0,1-1.43-.41,2.21,2.21,0,0,1-.83-1.1,5.07,5.07,0,0,1-.22-1.66c0-.33,0-.61,0-.82a2.43,2.43,0,0,1,.09-.57,2.25,2.25,0,0,1,.82-1.25,2.44,2.44,0,0,1,1.5-.47,2.35,2.35,0,0,1,1.68.56,2.55,2.55,0,0,1,.73,1.56A6.3,6.3,0,0,1,103.7,92.68Zm-3.44-1.91a1.44,1.44,0,0,0-.51.83,3.87,3.87,0,0,0-.1.81,0,0,0,0,0,0,0h3.11a0,0,0,0,0,0,0,6.84,6.84,0,0,0-.07-.77,1.5,1.5,0,0,0-.54-.85,1.53,1.53,0,0,0-1-.32A1.57,1.57,0,0,0,100.26,90.77Z" transform="translate(-50 -50)" style="fill:#010101"/><path d="M109.94,90.28a1.9,1.9,0,0,1,.59,1.46v4a.11.11,0,0,1-.12.12h-.62a.11.11,0,0,1-.12-.12v-.49s0,0,0,0a.06.06,0,0,0,0,0,1.83,1.83,0,0,1-.78.54,2.78,2.78,0,0,1-1.06.19,2.36,2.36,0,0,1-1.43-.43,1.54,1.54,0,0,1-.58-1.32,1.73,1.73,0,0,1,.66-1.43,2.87,2.87,0,0,1,1.81-.52h1.4s0,0,0-.05v-.45a1.34,1.34,0,0,0-.34-1,1.44,1.44,0,0,0-1.06-.35,1.77,1.77,0,0,0-.94.22.93.93,0,0,0-.44.62.13.13,0,0,1-.14.11l-.65-.09c-.09,0-.13,0-.11-.09a1.53,1.53,0,0,1,.72-1.1,2.75,2.75,0,0,1,1.56-.42A2.34,2.34,0,0,1,109.94,90.28Zm-.78,4.62a1.09,1.09,0,0,0,.51-1V93s0-.05,0-.05h-1.26a2.23,2.23,0,0,0-1.28.33,1,1,0,0,0-.48.9,1,1,0,0,0,.37.8,1.55,1.55,0,0,0,1,.27A2.1,2.1,0,0,0,109.16,94.9Z" transform="translate(-50 -50)" style="fill:#010101"/><path d="M117,87.49h.61a.11.11,0,0,1,.12.12v8.16a.11.11,0,0,1-.12.12H117a.11.11,0,0,1-.12-.12v-.5s0,0,0,0,0,0,0,0a1.8,1.8,0,0,1-.65.54,2.06,2.06,0,0,1-.87.19,2.32,2.32,0,0,1-1.41-.43,2.18,2.18,0,0,1-.79-1.18,7.16,7.16,0,0,1,0-3,2.23,2.23,0,0,1,.79-1.21,2.3,2.3,0,0,1,1.43-.44,2,2,0,0,1,.86.19,1.64,1.64,0,0,1,.66.53s0,0,0,0,0,0,0,0V87.61A.11.11,0,0,1,117,87.49Zm-.18,6.27a8.22,8.22,0,0,0,0-1.81,2,2,0,0,0-.17-.58,1.37,1.37,0,0,0-.47-.66,1.3,1.3,0,0,0-.79-.24,1.39,1.39,0,0,0-.82.24,1.31,1.31,0,0,0-.51.63,2.24,2.24,0,0,0-.21.6,5.2,5.2,0,0,0-.07.92,6.52,6.52,0,0,0,0,.88,2.38,2.38,0,0,0,.17.57,1.34,1.34,0,0,0,.51.68,1.46,1.46,0,0,0,.87.25,1.28,1.28,0,0,0,.81-.25,1.49,1.49,0,0,0,.47-.67A1.84,1.84,0,0,0,116.85,93.76Z" transform="translate(-50 -50)" style="fill:#010101"/><path d="M125.24,92.68v.38a.11.11,0,0,1-.12.12h-3.88a0,0,0,0,0,0,0,4.61,4.61,0,0,0,.08.85,1.43,1.43,0,0,0,.56.85,1.84,1.84,0,0,0,1.11.31,1.69,1.69,0,0,0,.88-.22,1.57,1.57,0,0,0,.6-.65c0-.07.11-.09.17-.05l.47.28a.12.12,0,0,1,0,.16,2.13,2.13,0,0,1-.9.91,2.82,2.82,0,0,1-1.38.33,2.49,2.49,0,0,1-1.43-.41,2.21,2.21,0,0,1-.83-1.1,5.11,5.11,0,0,1-.21-1.66c0-.33,0-.61,0-.82a2.43,2.43,0,0,1,.09-.57,2.25,2.25,0,0,1,.82-1.25,2.44,2.44,0,0,1,1.5-.47,2.35,2.35,0,0,1,1.68.56,2.55,2.55,0,0,1,.73,1.56A6.3,6.3,0,0,1,125.24,92.68Zm-3.44-1.91a1.44,1.44,0,0,0-.51.83,3.87,3.87,0,0,0-.1.81,0,0,0,0,0,0,0h3.11a0,0,0,0,0,.05,0,6.84,6.84,0,0,0-.07-.77,1.5,1.5,0,0,0-.54-.85,1.53,1.53,0,0,0-1-.32A1.57,1.57,0,0,0,121.8,90.77Z" transform="translate(-50 -50)" style="fill:#010101"/><path d="M130.9,89.92a.11.11,0,0,1,.07.15l-.13.59c0,.08-.07.1-.15.07a1.4,1.4,0,0,0-.47-.08h-.16a1.45,1.45,0,0,0-1,.46,1.57,1.57,0,0,0-.41,1.11v3.54a.11.11,0,0,1-.12.12h-.61a.11.11,0,0,1-.12-.12V89.94a.11.11,0,0,1,.12-.12h.61a.11.11,0,0,1,.12.12v.73s0,0,0,0,0,0,0,0a1.86,1.86,0,0,1,.64-.69,1.61,1.61,0,0,1,.91-.25A1.34,1.34,0,0,1,130.9,89.92Z" transform="translate(-50 -50)" style="fill:#010101"/><path d="M132.78,95.68a.68.68,0,0,1-.18-.48.64.64,0,0,1,.67-.68.69.69,0,0,1,.48.19.68.68,0,0,1,.19.49.65.65,0,0,1-.67.67A.68.68,0,0,1,132.78,95.68Z" transform="translate(-50 -50)" style="fill:#010101"/><path d="M140.15,95.77V87.61a.11.11,0,0,1,.12-.12h.62a.11.11,0,0,1,.12.12V95.1s0,.05.05.05h4.23a.11.11,0,0,1,.12.12v.5a.11.11,0,0,1-.12.12h-5A.11.11,0,0,1,140.15,95.77Z" transform="translate(-50 -50)" style="fill:#010101"/><path d="M148.47,95.54a2.22,2.22,0,0,1-.86-1.22,5,5,0,0,1-.17-1.48,4.82,4.82,0,0,1,.17-1.46,2.16,2.16,0,0,1,.85-1.21,2.5,2.5,0,0,1,1.51-.45,2.42,2.42,0,0,1,1.47.45,2.24,2.24,0,0,1,.85,1.2,6.88,6.88,0,0,1,0,2.95,2.25,2.25,0,0,1-.85,1.22A2.45,2.45,0,0,1,150,96,2.48,2.48,0,0,1,148.47,95.54Zm2.47-.61a1.57,1.57,0,0,0,.55-.86,4.82,4.82,0,0,0,.11-1.21,6.25,6.25,0,0,0-.09-1.22,1.58,1.58,0,0,0-.56-.85,1.56,1.56,0,0,0-1-.32,1.53,1.53,0,0,0-1.55,1.17,7.43,7.43,0,0,0,0,2.43,1.56,1.56,0,0,0,.54.86,1.65,1.65,0,0,0,1,.31A1.55,1.55,0,0,0,150.94,94.93Z" transform="translate(-50 -50)" style="fill:#010101"/><path d="M155.83,95.54a2.26,2.26,0,0,1-.84-1.22,5.26,5.26,0,0,1-.16-1.49,5.61,5.61,0,0,1,.16-1.46,2.14,2.14,0,0,1,.84-1.2,2.45,2.45,0,0,1,1.48-.45,2.57,2.57,0,0,1,1.52.45,2,2,0,0,1,.84,1.1,2.45,2.45,0,0,1,.07.36v0s0,.09-.11.1l-.6.09h0c-.06,0-.1,0-.11-.11l0-.18a1.34,1.34,0,0,0-.53-.77,1.59,1.59,0,0,0-1-.32,1.52,1.52,0,0,0-1,.32,1.43,1.43,0,0,0-.52.84,5.61,5.61,0,0,0-.11,1.21,5.49,5.49,0,0,0,.11,1.23,1.48,1.48,0,0,0,.52.86,1.57,1.57,0,0,0,1,.31,1.73,1.73,0,0,0,1-.3,1.32,1.32,0,0,0,.53-.79v-.09A.11.11,0,0,1,159,94l.59.1a.1.1,0,0,1,.1.13l0,.24a1.93,1.93,0,0,1-.83,1.13,2.75,2.75,0,0,1-1.53.43A2.45,2.45,0,0,1,155.83,95.54Z" transform="translate(-50 -50)" style="fill:#010101"/><path d="M165.87,90.28a1.9,1.9,0,0,1,.59,1.46v4a.11.11,0,0,1-.12.12h-.61a.11.11,0,0,1-.12-.12v-.49a.05.05,0,0,0,0,0,0,0,0,0,0,0,0,1.83,1.83,0,0,1-.78.54,2.83,2.83,0,0,1-1.07.19,2.36,2.36,0,0,1-1.43-.43,1.56,1.56,0,0,1-.58-1.32,1.73,1.73,0,0,1,.66-1.43,2.88,2.88,0,0,1,1.82-.52h1.39s.05,0,.05-.05v-.45a1.34,1.34,0,0,0-.35-1,1.42,1.42,0,0,0-1.06-.35,1.73,1.73,0,0,0-.93.22,1,1,0,0,0-.45.62.13.13,0,0,1-.14.11l-.65-.09c-.09,0-.12,0-.11-.09a1.6,1.6,0,0,1,.72-1.1,2.75,2.75,0,0,1,1.56-.42A2.34,2.34,0,0,1,165.87,90.28Zm-.78,4.62a1.1,1.1,0,0,0,.52-1V93a0,0,0,0,0-.05-.05H164.3a2.19,2.19,0,0,0-1.27.33,1,1,0,0,0-.48.9.94.94,0,0,0,.36.8,1.58,1.58,0,0,0,1,.27A2.07,2.07,0,0,0,165.09,94.9Z" transform="translate(-50 -50)" style="fill:#010101"/><path d="M169.07,95.77V87.61a.11.11,0,0,1,.12-.12h.62a.11.11,0,0,1,.12.12v8.16a.11.11,0,0,1-.12.12h-.62A.11.11,0,0,1,169.07,95.77Z" transform="translate(-50 -50)" style="fill:#010101"/><path d="M181,88.13a2.3,2.3,0,0,1,.64,1.7,2.21,2.21,0,0,1-.65,1.68,2.35,2.35,0,0,1-1.72.64H176.9s-.05,0-.05,0v3.57a.11.11,0,0,1-.12.12h-.61a.11.11,0,0,1-.12-.12V87.6a.11.11,0,0,1,.12-.12h3.15A2.29,2.29,0,0,1,181,88.13ZM180.33,91a1.54,1.54,0,0,0,.44-1.16,1.53,1.53,0,0,0-1.59-1.62H176.9a0,0,0,0,0-.05,0v3.12a0,0,0,0,0,.05,0h2.28A1.58,1.58,0,0,0,180.33,91Z" transform="translate(-50 -50)" style="fill:#010101"/><path d="M187.59,90.28a1.9,1.9,0,0,1,.59,1.46v4a.11.11,0,0,1-.12.12h-.61a.11.11,0,0,1-.12-.12v-.49a.05.05,0,0,0,0,0,0,0,0,0,0,0,0,1.83,1.83,0,0,1-.78.54,2.83,2.83,0,0,1-1.07.19,2.36,2.36,0,0,1-1.43-.43,1.56,1.56,0,0,1-.58-1.32,1.73,1.73,0,0,1,.66-1.43,2.88,2.88,0,0,1,1.82-.52h1.39s.05,0,.05-.05v-.45a1.34,1.34,0,0,0-.35-1,1.42,1.42,0,0,0-1.06-.35,1.73,1.73,0,0,0-.93.22,1,1,0,0,0-.45.62.13.13,0,0,1-.14.11l-.65-.09c-.09,0-.12,0-.11-.09a1.6,1.6,0,0,1,.72-1.1,2.75,2.75,0,0,1,1.56-.42A2.34,2.34,0,0,1,187.59,90.28Zm-.78,4.62a1.1,1.1,0,0,0,.52-1V93a0,0,0,0,0-.05-.05H186a2.19,2.19,0,0,0-1.27.33,1,1,0,0,0-.48.9.94.94,0,0,0,.36.8,1.58,1.58,0,0,0,1,.27A2.07,2.07,0,0,0,186.81,94.9Z" transform="translate(-50 -50)" style="fill:#010101"/><path d="M193.93,89.92a.13.13,0,0,1,.07.15l-.13.59a.11.11,0,0,1-.16.07,1.36,1.36,0,0,0-.47-.08h-.15a1.48,1.48,0,0,0-1,.46,1.56,1.56,0,0,0-.4,1.11v3.54a.11.11,0,0,1-.12.12h-.62a.11.11,0,0,1-.12-.12V89.94a.11.11,0,0,1,.12-.12h.62a.11.11,0,0,1,.12.12v.73s0,0,0,0,0,0,0,0a1.88,1.88,0,0,1,.65-.69,1.6,1.6,0,0,1,.9-.25A1.38,1.38,0,0,1,193.93,89.92Z" transform="translate(-50 -50)" style="fill:#010101"/><path d="M198.77,90.53h-1.35s0,0,0,0v3.54a1.08,1.08,0,0,0,.26.81,1.21,1.21,0,0,0,.81.23h.3a.11.11,0,0,1,.12.12v.49a.11.11,0,0,1-.12.12h-.45a2.15,2.15,0,0,1-1.3-.32,1.4,1.4,0,0,1-.45-1.2v-3.8s0,0,0,0h-.73a.11.11,0,0,1-.12-.12v-.47a.11.11,0,0,1,.12-.12h.73a0,0,0,0,0,0,0V88.38a.11.11,0,0,1,.12-.12h.59a.11.11,0,0,1,.12.12v1.39a0,0,0,0,0,0,0h1.35a.11.11,0,0,1,.12.12v.47A.11.11,0,0,1,198.77,90.53Z" transform="translate(-50 -50)" style="fill:#010101"/><path d="M205.43,90.3a2,2,0,0,1,.57,1.51v4a.11.11,0,0,1-.12.12h-.61a.11.11,0,0,1-.12-.12V92a1.49,1.49,0,0,0-.41-1.08,1.35,1.35,0,0,0-1-.42A1.41,1.41,0,0,0,202.23,92v3.81a.11.11,0,0,1-.12.12h-.61a.11.11,0,0,1-.12-.12V89.94a.11.11,0,0,1,.12-.12h.61a.11.11,0,0,1,.12.12v.52s0,0,0,0,0,0,0,0a1.84,1.84,0,0,1,1.62-.74A2.06,2.06,0,0,1,205.43,90.3Z" transform="translate(-50 -50)" style="fill:#010101"/><path d="M213.31,92.68v.38a.11.11,0,0,1-.12.12h-3.88a0,0,0,0,0-.05,0,6.35,6.35,0,0,0,.07.85,1.45,1.45,0,0,0,.57.85,1.81,1.81,0,0,0,1.1.31,1.73,1.73,0,0,0,.89-.22,1.57,1.57,0,0,0,.6-.65c0-.07.1-.09.17-.05l.47.28a.11.11,0,0,1,0,.16,2.13,2.13,0,0,1-.9.91,2.82,2.82,0,0,1-1.38.33,2.48,2.48,0,0,1-1.42-.41,2.15,2.15,0,0,1-.83-1.1,4.81,4.81,0,0,1-.22-1.66c0-.33,0-.61,0-.82a2.43,2.43,0,0,1,.09-.57,2.25,2.25,0,0,1,.82-1.25,2.42,2.42,0,0,1,1.5-.47,2.38,2.38,0,0,1,1.68.56,2.55,2.55,0,0,1,.73,1.56A6.3,6.3,0,0,1,213.31,92.68Zm-3.44-1.91a1.44,1.44,0,0,0-.51.83,3.87,3.87,0,0,0-.1.81,0,0,0,0,0,.05,0h3.11a0,0,0,0,0,.05,0,4.75,4.75,0,0,0-.08-.77,1.43,1.43,0,0,0-.53-.85,1.75,1.75,0,0,0-2,0Z" transform="translate(-50 -50)" style="fill:#010101"/><path d="M219,89.92a.12.12,0,0,1,.07.15l-.13.59c0,.08-.08.1-.16.07a1.3,1.3,0,0,0-.46-.08h-.16a1.44,1.44,0,0,0-1,.46,1.57,1.57,0,0,0-.41,1.11v3.54a.11.11,0,0,1-.12.12H216a.11.11,0,0,1-.12-.12V89.94a.11.11,0,0,1,.12-.12h.61a.11.11,0,0,1,.12.12v.73s0,0,0,0,0,0,0,0a1.86,1.86,0,0,1,.64-.69,1.61,1.61,0,0,1,.91-.25A1.34,1.34,0,0,1,219,89.92Z" transform="translate(-50 -50)" style="fill:#010101"/><path d="M220.85,95.68a.65.65,0,0,1-.19-.48.64.64,0,0,1,.19-.49.66.66,0,0,1,.48-.19.67.67,0,0,1,.48.19.65.65,0,0,1,.2.49.66.66,0,0,1-.2.48.67.67,0,0,1-.48.19A.66.66,0,0,1,220.85,95.68Z" transform="translate(-50 -50)" style="fill:#010101"/></g><rect y="31.4" width="171.59" height="2" style="fill:#009ade"/></svg>